<?xml version="1.0" standalone="no"?><!DOCTYPE svg PUBLIC "-//W3C//DTD SVG 1.1//EN" "http://www.w3.org/Graphics/SVG/1.1/DTD/svg11.dtd"><svg t="1556161352036" class="icon" style="" viewBox="0 0 1024 1024" version="1.1" xmlns="http://www.w3.org/2000/svg" p-id="2007" xmlns:xlink="http://www.w3.org/1999/xlink" width="200" height="200"><defs><style type="text/css"></style></defs><path d="M356.256 234.176a32.192 32.192 0 0 0-33.44-30.944 31.168 31.168 0 0 0-17.888 7.04 432.672 432.672 0 0 0-221.44 377.6c0 238.656 194.112 432.832 432.768 432.832 238.656 0 432.832-194.176 432.832-432.832 0-158.848-86.784-304.64-226.496-380.544l-0.32 0.608a31.232 31.232 0 0 0-16.928-4.704 32.224 32.224 0 0 0-10.048 62.4 368.736 368.736 0 0 1 189.792 322.24c0 203.36-165.44 368.832-368.832 368.832-203.36 0-368.8-165.472-368.8-368.832 0-135.36 73.952-259.616 193.024-324.32l-0.32-0.672a31.904 31.904 0 0 0 16.096-28.704" p-id="2008"></path><path d="M517.536 406.08c17.28-0.64 30.688-15.008 30.72-32.224v-0.192c0-0.32 0.192-0.64 0.192-1.056 0-0.256-0.16-0.48-0.16-0.736v-320h-0.032c0-0.448 0.224-0.832 0.192-1.28a32.064 32.064 0 1 0-64.128 1.28h-0.032v0.224c0 0.352-0.192 0.64-0.192 1.024 0 0.256 0.16 0.416 0.192 0.672v320.064c0 0.448-0.192 0.832-0.192 1.28 0.704 17.76 15.68 31.616 33.44 30.944" p-id="2009"></path></svg>